<svg width="1188" height="207" viewBox="0 0 1188 207" fill="none" xmlns="http://www.w3.org/2000/svg">
<path fill-rule="evenodd" clip-rule="evenodd" d="M503.64 98.618L490.752 126.811C489.875 128.726 488.211 130.082 486.157 130.553C484.124 131.021 481.996 130.516 480.387 129.186C477.047 126.427 473.336 123.649 469.375 121.853C466.726 120.651 463.896 119.902 460.974 119.902C455.622 119.902 451.443 121.939 447.787 125.791C442.873 130.973 439.973 138.641 438.159 145.474V199.479C438.159 203.174 435.151 206.181 431.458 206.181H368.931C365.238 206.181 362.229 203.174 362.229 199.479V53.171C362.229 49.476 365.237 46.469 368.931 46.469H425.476C429.171 46.469 432.178 49.476 432.178 53.171V68.73C435.658 64.178 439.582 59.965 444.029 56.348C453.736 48.455 464.94 44.276 477.479 44.276C484.116 44.276 490.661 45.494 496.96 47.548C503.767 49.769 510.245 52.912 516.327 56.678L576.837 1.74097C578.084 0.607967 579.65 0.000976562 581.338 0.000976562H596.845C600.539 0.000976562 603.546 3.009 603.546 6.703V46.469H646.257C649.952 46.469 652.959 49.476 652.959 53.171V92.911C652.959 96.604 649.952 99.612 646.257 99.612H603.546V140.279C603.546 143.286 603.856 149.494 605.974 151.804C607.872 153.876 612.764 154.169 615.392 154.169C620.393 154.169 625.357 153.206 630.107 151.692C635.723 149.903 641.042 147.234 646.015 144.087C648.093 142.775 650.679 142.698 652.831 143.884C654.989 145.074 656.298 147.289 656.298 149.754V197.068C656.298 199.168 655.354 201.091 653.691 202.372C652.529 203.269 651.349 204.139 650.146 204.979C649.006 205.772 647.702 206.182 646.315 206.182H548.305C546.553 206.182 544.932 205.527 543.668 204.313C531.696 192.828 527.617 177.021 527.617 160.872V99.613H507.146C505.881 99.613 504.672 99.256 503.639 98.62L503.64 98.618ZM27.173 99.611H6.70197C3.00897 99.611 0 96.603 0 92.91V74.063C0 72.15 0.782951 70.388 2.19995 69.101L76.391 1.73999C77.638 0.60699 79.204 0 80.892 0H96.3989C100.094 0 103.101 3.00797 103.101 6.70197V46.468H145.812C149.505 46.468 152.514 49.475 152.514 53.17V92.91C152.514 96.603 149.506 99.611 145.812 99.611H103.101V140.278C103.101 143.283 103.413 149.495 105.529 151.803C107.427 153.872 112.319 154.168 114.947 154.168C119.948 154.168 124.912 153.205 129.662 151.691C135.278 149.902 140.597 147.233 145.57 144.086C147.648 142.774 150.234 142.697 152.386 143.883C154.543 145.073 155.852 147.288 155.852 149.753V197.067C155.852 199.163 154.911 201.085 153.25 202.368C152.087 203.266 150.905 204.136 149.7 204.976C148.56 205.771 147.257 206.181 145.869 206.181H47.862C46.114 206.181 44.486 205.529 43.225 204.317C31.248 192.832 27.17 177.025 27.17 160.871V99.612L27.173 99.611ZM313.909 205.131C312.819 205.825 311.607 206.18 310.314 206.18H200.182C198.894 206.18 197.679 205.828 196.593 205.138C192.463 202.518 188.571 199.535 184.945 196.256C166.11 179.235 157.905 157.154 157.905 132.05C157.905 106.969 166.093 84.88 184.889 67.844C204.461 50.105 229.377 43.675 255.303 43.675C281.222 43.675 306.18 50.08 325.727 67.851C344.481 84.9 352.6 106.999 352.6 132.05C352.6 157.151 344.4 179.238 325.563 196.258C321.935 199.534 318.035 202.508 313.911 205.131H313.909ZM658.348 132.05C658.348 106.967 666.539 84.88 685.333 67.844C704.906 50.105 729.822 43.675 755.747 43.675C781.667 43.675 806.625 50.08 826.172 67.851C844.925 84.9 853.045 106.999 853.045 132.05C853.045 157.151 844.846 179.238 826.008 196.258C822.38 199.534 818.477 202.506 814.353 205.131C813.263 205.825 812.051 206.18 810.759 206.18H700.628C699.339 206.18 698.126 205.828 697.039 205.138C692.91 202.518 689.017 199.535 685.389 196.256C666.554 179.235 658.35 157.154 658.35 132.05H658.348ZM859.035 197.964V153.141C859.035 150.578 860.456 148.286 862.751 147.143C865.041 146.001 867.735 146.25 869.777 147.793C877.764 153.83 886.356 160.06 895.513 164.177C901.226 166.747 907.355 168.476 913.655 168.476C916.458 168.476 919.871 168.122 922.243 166.501C923.405 165.707 923.903 164.932 923.906 163.541C923.396 160.416 907.96 153.267 904.922 151.99C901.009 150.342 897.081 148.725 893.207 146.985C883.093 142.444 874.059 135.946 867.774 126.689C861.601 117.594 859.035 107.158 859.035 96.251C859.035 80.182 865.447 66.942 878.406 57.354C892.611 46.848 910.656 43.676 927.965 43.676C938.545 43.676 949.14 44.686 959.477 46.975C969.34 49.161 978.942 52.472 988.01 56.926C990.324 58.063 991.757 60.369 991.757 62.943V104.278C991.757 106.665 990.526 108.822 988.474 110.038C986.422 111.257 983.936 111.304 981.839 110.16C974.447 106.119 966.892 102.285 959.016 99.263C955.107 97.763 949.816 95.922 945.616 95.922C943.284 95.922 938.768 96.113 936.786 97.396C935.947 97.937 935.814 98.458 935.789 99.25C936.739 101.863 949.869 108.204 952.964 109.54C955.649 110.7 958.33 111.875 961.012 113.047C972.15 117.902 983.039 124.616 990.593 134.316C997.585 143.299 1000.83 153.721 1000.83 165.056C1000.83 180.564 995.669 194.256 983.798 204.541C982.564 205.611 981.046 206.179 979.411 206.179H868.361C867.207 206.179 866.118 205.899 865.109 205.34C864.173 204.82 863.249 204.277 862.329 203.732C860.267 202.514 859.035 200.357 859.035 197.962V197.964ZM1096.32 114.457C1096.32 114.338 1096.32 114.219 1096.32 114.1C1096.32 111.431 1095.92 108.014 1093.57 106.328C1090.19 103.898 1083.11 103.548 1079.04 103.548C1069.48 103.548 1060.16 105.406 1051.26 108.874C1041.28 112.767 1032.12 118.579 1023.82 125.295C1021.79 126.933 1019.06 127.251 1016.72 126.127C1014.37 125.005 1012.91 122.683 1012.91 120.082V74.66C1012.91 72.476 1013.93 70.481 1015.71 69.211C1027.11 61.056 1039.58 54.503 1052.9 50.099C1065.86 45.814 1079.4 43.675 1093.05 43.675C1112.78 43.675 1134.34 47.172 1149.81 60.387C1164.66 73.075 1169.91 91.017 1169.91 110.009V153.989C1169.91 155.486 1170.14 161.229 1171.2 162.259C1172.81 163.633 1179.35 164.029 1181.49 164.089C1183.56 164.148 1185.43 165.12 1186.67 166.776C1187.91 168.433 1188.31 170.505 1187.78 172.503L1180.19 201.192C1179.41 204.146 1176.77 206.181 1173.72 206.181H1020.06C1018.04 206.181 1016.17 205.303 1014.88 203.737C1008.44 195.893 1005.88 186.351 1005.88 176.326C1005.88 165.318 1009.48 155.454 1016.88 147.258C1024.77 138.5 1035.46 133.125 1046.64 129.855C1051.75 128.361 1056.91 127.048 1062.06 125.714C1073.3 122.802 1085.84 119.682 1096.32 114.457H1096.32ZM234.682 132.051C234.682 138.69 236.078 145.301 240.581 150.401C244.524 154.871 249.394 156.76 255.302 156.76C261.114 156.76 265.842 154.884 269.677 150.45C274.13 145.3 275.524 138.703 275.524 132.051C275.524 125.496 274.172 118.926 269.776 113.843C265.924 109.387 261.111 107.638 255.302 107.638C249.406 107.638 244.484 109.417 240.531 113.898C236.073 118.951 234.682 125.474 234.682 132.052V132.051ZM735.127 132.051C735.127 138.69 736.523 145.301 741.025 150.401C744.971 154.871 749.836 156.76 755.746 156.76C761.559 156.76 766.286 154.882 770.123 150.448C774.579 145.301 775.969 138.701 775.969 132.051C775.969 125.491 774.614 118.929 770.219 113.848C766.365 109.392 761.556 107.638 755.746 107.638C749.85 107.638 744.929 109.417 740.975 113.898C736.519 118.952 735.126 125.472 735.126 132.052L735.127 132.051ZM1096.21 153.377C1094.36 154.097 1092.52 154.842 1090.72 155.665C1085.74 157.945 1080.54 160.512 1076.28 163.987C1075.43 164.682 1074.57 165.39 1073.8 166.169C1071.94 168.022 1070.74 170.195 1070.31 172.785C1069.42 178.045 1072.05 182.294 1077.66 182.294C1081.2 182.294 1084.42 181.682 1087.74 180.466C1091.24 179.189 1094.61 177.621 1097.88 175.841C1097.39 171.951 1096.96 168.052 1096.64 164.144C1096.34 160.563 1096.23 156.97 1096.21 153.378" fill="#B7937B"/>
</svg>
