<svg xmlns="http://www.w3.org/2000/svg" viewBox="0 0 64 64">
  <!-- Isotipo real de Tortosa (assets/brand/logo-isotipo.svg), escalado y centrado -->
  <g transform="translate(0.6 4.35) scale(0.116)">
    <path d="M135.961 32.2208C138 31.2422 140.185 30.9665 142.251 31.3467C144.329 31.6797 146.298 32.6716 147.893 34.2784C151.028 37.4293 151.785 42.0011 149.835 45.9991L66.2114 217.351C63.6015 222.696 63.3622 228.781 65.5669 234.313L80.5796 271.944C83.3532 278.891 89.5971 283.564 96.5571 284.788C100.182 285.385 103.992 285.049 107.602 283.609L132.871 273.532C134.717 272.795 136.655 272.638 138.482 272.971C141.935 273.521 145.027 275.82 146.411 279.293L188.979 386.006C197.893 408.341 210.766 429.521 229.18 445.276C232.341 447.986 233.535 452.065 232.323 456.049C231.11 460.027 227.854 462.757 223.719 463.246L149.238 472.059C146.501 472.383 143.778 472.309 141.121 471.85C138.507 471.42 135.955 470.617 133.515 469.445C121.201 463.54 109.432 456.539 98.2954 448.641C40.5584 407.687 10.3164 349.044 2.08838 279.516L2.0874 279.517C-6.13458 210.035 9.54554 145.958 56.0063 92.629C78.3523 66.98 105.342 46.9238 135.961 32.2208ZM241.844 2.89948C313.254 -5.86252 384.031 4.24898 443.621 46.795C501.127 87.858 531.156 146.55 539.367 215.941C546.404 275.404 536.073 332.324 501.547 382.044C501.012 382.812 491.326 395.671 490.741 396.387L490.744 396.386C488.961 398.574 487.146 400.733 485.293 402.857C476.311 413.126 466.464 422.64 455.896 431.272C451.709 434.688 446.775 436.787 441.405 437.422L375.075 445.272C369.936 445.88 365.211 442.63 363.935 437.616C362.662 432.596 365.265 427.491 370.074 425.572L470.401 385.55C482.598 380.666 491.895 363.83 486.729 350.877L449.041 256.403C446.192 249.268 439.79 244.324 432.164 243.378C424.585 242.435 417.081 245.675 412.593 251.863C405.491 261.658 397.39 270.801 388.026 278.505C380.271 284.882 371.709 290.413 362.352 294.144C359.522 295.277 356.33 296.356 353.346 296.972C349.199 297.825 345.171 296.19 342.799 292.688C340.221 288.892 337.855 283.777 336.151 279.501L309.981 213.907C307.888 208.664 310.459 202.682 315.704 200.594L385.383 172.798C396.014 168.553 401.325 156.181 397.085 145.55L365.429 66.2012C361.185 55.5705 348.818 50.2582 338.187 54.4981L268.506 82.295C263.263 84.3878 257.28 81.8162 255.192 76.5723L231.477 17.126C230.259 14.078 230.501 10.9335 232.176 8.10651C233.851 5.27951 236.488 3.55533 239.748 3.15533L241.844 2.89948Z" fill="#B7937B"/>
  </g>
</svg>
